<svg xmlns="http://www.w3.org/2000/svg" xmlns:xlink="http://www.w3.org/1999/xlink" fill="none" version="1.1" width="175.35000610351562" height="235.4199981689453" viewBox="0 0 175.35000610351562 235.4199981689453"><defs><clipPath id="master_svg0_680_11186"><rect x="0" y="0" width="175.35000610351562" height="235.4199981689453" rx="0"/></clipPath></defs><g clip-path="url(#master_svg0_680_11186)"><path d="M93.0908203125,173.38258409375C93.0908203125,173.38258409375,97.0299337125,174.86256929375,100.0799293125,170.63927869375C102.7078705125,167.00403285375,103.8389603125,167.36699385975,103.8389603125,167.36699385975C103.8389603125,167.36699385975,104.8912643125,167.44859167975,104.8828143125,169.11146309375C104.8828143125,170.72368979375,101.0056076125,177.52146459375,102.4630775125,179.18152159375C103.9205473125,180.84157159375,97.3000259125,177.05439949375,96.8779812125,176.76741119375C96.4559357125,176.48042199374999,93.0908203125,173.38258409375,93.0908203125,173.38258409375Z" fill-rule="evenodd" fill="#AE2427" fill-opacity="1" style="mix-blend-mode:passthrough"/><path d="M138.3435825,222.62124628125C138.3435825,222.62124628125,132.83445749999998,231.41671228125,123.7125985,226.30993828125C119.3627015,228.89004728125,115.069067,227.35098828125,112.6915369,224.14623628125C110.8795438,224.94250728125,103.6512769,223.82829628125,105.33946571,216.65912128125C107.0276545,209.48994728125,112.4945741,204.92901450125,117.3087315,208.27444868125C119.9648215,206.99705218125,123.1076675,207.09552808125,124.1233925,208.57551268125C124.9956205,205.72809511125,125.1334895,205.96162683125,126.67818249999999,205.07814483325C128.2228775,204.19466281125,138.3435825,222.62124628125,138.3435825,222.62124628125Z" fill-rule="evenodd" fill="#AE2427" fill-opacity="1" style="mix-blend-mode:passthrough"/><path d="M112.84765625,224.3443261875C115.25301335,227.4134691875,119.45838545,228.8365721875,123.71501125,226.3101401875C123.79585525,226.3554061875,123.87642525,226.3995661875,123.95669525,226.4426571875C124.89109025,222.6831901875,126.08559225,215.5544099875,124.22334625,208.2604894075C124.19184125,208.3611587875,124.15937025,208.4661572875,124.12580525,208.5757139875C123.12871225,207.1188448075,120.06768415,207.0006676875,117.43874215,208.2158236475C117.83095835,209.3133270875,118.88808675,212.7844524875,118.10747764999999,216.4876975875C117.52474495,219.2563671875,115.39393305,222.1019271875,112.84765625,224.3443261875Z" fill-rule="evenodd" fill="#D24138" fill-opacity="1" style="mix-blend-mode:passthrough"/><path d="M9.43908025,164.9697265625C9.43908025,164.9697265625,-0.2539415500000004,179.0013955625,13.37819005,189.4316005625C12.31463095,197.6727825625,17.42140725,203.1537665625,23.80557425,204.6703295625C23.78306425,207.92572756250001,30.16160625,218.1083255625,39.88277025,210.8997535625C49.60392725,203.6911885625,52.93529525,192.4787885625,44.75882725,187.3832685625C44.95859125,182.5437815625,42.76675825,177.8646805625,39.87432525,177.2991395625C43.60522125,174.13096716249999,43.16067125,174.0747060625,43.49267625,171.1681952625C43.82469225,168.2616937625,9.43908025,164.9697265625,9.43908025,164.9697265625Z" fill-rule="evenodd" fill="#AE2427" fill-opacity="1" style="mix-blend-mode:passthrough"/><path d="M41.9706189375,170.5690003125C41.9706189375,170.5690003125,-3.3938565625,181.03576631250002,2.4669768175,145.3333703125C8.3278112375,109.6309623125,45.1050259375,70.1779693125,84.6649479375,89.7384634125C91.0744399375,92.94883631249999,94.7462769375,99.6903453125,84.0009379375,105.8156583125C73.2556079375,111.9409793125,64.0240209375,123.2827983125,60.6138729375,132.18518431249998C73.4638139375,128.7778553125,72.2792589375,130.6629983125,87.0621949375,118.3251493125C91.3164439375,114.3860383125,96.8058619375,115.2301353125,95.3230739375,127.2106593125C93.8402629375,139.1911813125,81.5108409375,168.1858293125,41.9706189375,170.5690003125Z" fill-rule="evenodd" fill="#D24039" fill-opacity="1" style="mix-blend-mode:passthrough"/><path d="M63.1490753125,126.85036675C62.1080613125,128.66857175,61.2482073125,130.45118675,60.5992043125,132.14545475C60.969432312500004,132.04728275,61.328011312499996,131.95350274999998,61.6756573125,131.86365475C60.9366193125,135.30808975,60.3533203125,139.14866675,58.8969073125,142.30272675C51.5926692125,158.10981775,47.8251953125,157.31917975,47.8251953125,157.31917975C60.230574312499996,145.11919375,52.7744021125,110.55350775,84.4448353125,99.86163875C87.6281513125,98.85593655,89.5739023125,97.74308997,90.7627293125,96.74609375C91.0842053125,99.57275895,89.2952763125,102.74955465,83.98625931250001,105.77592845C78.7774103125,108.74520375,73.9242703125,112.94029275,69.91753031249999,117.48909975000001C69.0206853125,118.42052275,67.5145303125,120.37029875,66.4329133125,121.92582875C65.4955083125,123.27397175,65.0497703125,124.05193675,63.2552483125,126.61663475C63.2192503125,126.69371075000001,63.1838673125,126.77163075,63.1490753125,126.85036675Z" fill-rule="evenodd" fill="#AE2427" fill-opacity="1" style="mix-blend-mode:passthrough" transform="matrix(1,0.00013570160081144422,-0.00013570160081144422,1,0.013128599794129059,-0.0064899555630262284)"/><path d="M22.2021484375,235.95674125C22.2021484375,235.95674125,57.7553524375,164.81365155,93.6814654375,172.85660988C129.6075884375,180.89956855,103.5047984375,258.90014625000003,97.1920094375,271.14373825C90.8792114375,283.38731625,22.2021484375,235.95674125,22.2021484375,235.95674125Z" fill-rule="evenodd" fill="#D53F39" fill-opacity="1" style="mix-blend-mode:passthrough"/><path d="M127.5332546375,206.42767321875C127.5332546375,206.42767321875,132.5924811375,234.37632721875002,151.1204794375,222.46846021875C169.6484714375,210.56057721874998,182.81370143750001,180.43124921875,162.3856854375,162.98274441875C159.0522384375,160.16164558875,154.4033474375,159.73565301875,153.5685924375,167.23695941875C152.7338184375,174.73826321875,148.6189884375,182.64299221875,144.47041343749999,186.70254321875C143.2815074375,178.67934421875,142.5029414375,179.79931221875,145.8504524375,168.54594711875C147.0225044375,165.21140341875,145.2321034375,162.33952631875,138.9024614375,166.06055641875C132.5728178375,169.78158661875,119.3457427375,183.68680021875,127.5332546375,206.42767321875Z" fill-rule="evenodd" fill="#D24039" fill-opacity="1" style="mix-blend-mode:passthrough"/><path d="M142.7058314375,164.2743737216C141.6885624375,164.493306085,140.4328884375,165.004806285,138.9172224375,165.892531675C132.6283445375,169.575952975,119.5377659375,183.265085375,127.3554592375,205.644989375C128.4354074375,205.962341375,129.8204627375,206.469368375,131.4498438375,207.278514375Q134.6405315375,208.862598375,133.7401609375,205.978599375C133.5760221375,205.631904375,133.2603292375,205.185306375,132.8615708375,204.621231375C130.7652979375,201.655792375,126.3736536375,195.443279375,129.6406650375,183.427202375C134.2860088375,166.323034975,143.5879324375,164.713621075,144.2041244375,164.412566485C144.4630294375,164.287247049,143.6896764375,164.2617769344,142.7058314375,164.2743737216Z" fill-rule="evenodd" fill="#AE2427" fill-opacity="1" style="mix-blend-mode:passthrough"/><path d="M146.573650625,184.29540646875C146.746981625,184.13067646875,146.910101625,183.96388246875,147.061253625,183.79438446875C148.892413625,181.73479646875,150.134946625,179.58022346875,150.841548625,177.00130346875C152.198634625,173.91935246875,153.197881625,170.55697346875,153.564790625,167.27208186875C153.989869625,163.46627856875,155.401946625,161.70425408875,157.126476625,161.26123046875C156.864549625,162.16619664875,156.720594625,163.51029586875,156.922239625,165.49761346875C157.468679625,170.88299276875,155.488571625,181.74388546875,144.100978625,189.43889046875Q132.713378785,197.13390746875,133.600617905,199.82378346875Q132.251445725,197.90565846875,139.335265625,190.01067946875C140.705959825,188.48262946875,142.636624325,187.25845346875,144.347880625,186.05185346875C144.380673625,186.26325046875002,144.413866625,186.48139946875,144.447386625,186.70676846875C145.162668625,186.00941846875,145.876945625,185.19842546875,146.573650625,184.29540646875Z" fill-rule="evenodd" fill="#AE2427" fill-opacity="1" style="mix-blend-mode:passthrough"/><path d="M50.3947584375,194.19580078125Q34.1598864375,212.16052578125,22.2021484375,235.95678678125Q27.4206919375,239.70606578125,35.8727114375,243.51037978125C38.804050437499995,232.95962478125,44.255432437500005,219.63434078125,48.280592437500005,211.10241678124999C51.9982094375,203.22237588125,51.2029244375,197.13312198125,50.3947584375,194.19580078125Z" fill-rule="evenodd" fill="#AF2024" fill-opacity="1" style="mix-blend-mode:passthrough"/><path d="M79.42949656249999,214.761263575C94.9163435625,222.070737875,98.7501225625,246.614296375,87.9880145625,269.580864375C77.22592556250001,292.547424375,55.9462545625,305.233924375,40.462219562499996,297.924461375C24.9781806425,290.614959375,21.1444043625,266.068584375,31.9036888625,243.102035375C42.6629675625,220.135467575,63.9426345625,207.451789375,79.42949656249999,214.761263575Z" fill-rule="evenodd" fill="#EA7F3D" fill-opacity="1" style="mix-blend-mode:passthrough"/><path d="M103.0550394,191.3374681425C105.2327967,192.3953981125,105.767401,195.7830281125,104.2508373,198.9089961125C102.7342744,202.0349628125,99.7489982,203.7090768125,97.5627928,202.6511478125C95.37659727,201.5932088125,94.84762764,198.2027650125,96.36418146,195.0796108125C97.8807259,191.9564653025,100.8772736,190.2795382125,103.0550394,191.3374681425Z" fill-rule="evenodd" fill="#4C1D17" fill-opacity="1" style="mix-blend-mode:passthrough"/><path d="M82.0373315375,182.018132205C84.2150898375,183.073248975,84.7524974375,186.463692175,83.2359428375,189.586846375C81.7193894375,192.710001875,78.7341041375,194.386929875,76.5450852375,193.328987875C74.3560669375,192.271059875,73.8327233775,188.883429075,75.3492869175,185.760274875C76.8658504375,182.637129365,79.8595662375,180.960202275,82.0373315375,182.018132205Z" fill-rule="evenodd" fill="#4C1D17" fill-opacity="1" style="mix-blend-mode:passthrough"/><path d="M99.752150725,193.953215365C100.359905025,194.299297955,100.523090825,195.160275625,100.115121325,195.872122725C99.707141925,196.583979625,98.885556725,196.879407925,98.277802225,196.533334925C97.670057317,196.187261825,97.506871255,195.323471025,97.912037655,194.611614345C98.317204115,193.899757676,99.144405725,193.604319645,99.752150725,193.953215365Z" fill-rule="evenodd" fill="#FFFFFF" fill-opacity="1" style="mix-blend-mode:passthrough"/><path d="M81.8119164625,184.72739924475C82.4843804625,184.92717419875,82.8388931625,185.72624556875,82.6053612625,186.51407386875C82.3718297625,187.30190226875,81.6402815625,187.77739546875,80.9678171825,187.57763026875C80.2953528725,187.37786456875,79.9408405825,186.57879336875,80.1743626745,185.79377796875C80.4078943425,185.00877198875,81.1394424625,184.53045642875,81.8119164625,184.72739924475Z" fill-rule="evenodd" fill="#FFFFFF" fill-opacity="1" style="mix-blend-mode:passthrough"/><path d="M86.17279429999999,208.93401055C85.2174311,208.93864535,84.2712798,208.74711895,83.392909,208.37128445C81.11385369999999,207.38931705,78.37054797,205.49010995,78.193287037,202.01243325C78.10268743,201.70935708,78.181024002,201.38098234,78.39868809,201.1514557C78.64682859,200.890890064,79.02595282,200.802464627,79.3637583,200.926363233C79.7499106,201.08732748,79.990041,201.47698879,79.9602512,201.89426565C80.0531011,203.97073315,81.4430485,205.60265114999999,84.0935044,206.74499175C86.9690619,207.98299595,89.72080700000001,206.09504125,89.734873,206.07815405C90.132677,205.79456855,90.685056,205.88716125,90.968661,206.28496595000001C91.252254,206.68277075,91.159663,207.23516035,90.761849,207.51874545C89.398973,208.41962145,87.80634309999999,208.91078095,86.17279429999999,208.93401055Z" fill="#4C1D17" fill-opacity="1" style="mix-blend-mode:passthrough"/><path d="M101.1311841125,188.4105869375C101.1311841125,188.4105869375,100.1239083125,188.8044909375,99.4233039125,188.3683799375C98.4047569225,187.7353079375,98.3625610225,187.24291593750002,98.2612622608,186.3538079375C97.9798990825,183.8440259375,107.0820551125,175.3805766375,111.4010068125,171.7622188375C115.53144681250001,168.3154955375,121.04619981249999,172.6260094375,122.8131698125,186.4157059375C123.8303258125,194.5076519375,125.3393668125,202.53015493750001,127.3318898125,210.4386439375C127.3318898125,210.4386439375,128.5558398125,214.3608699375,130.5985408125,217.1745259375C130.5985408125,217.1745259375,131.3610348125,218.1002049375,131.5129738125,218.7980039375C131.59457381250002,219.1778449375,131.1218718125,219.98255893750002,130.8376958125,219.9938089375C130.0217378125,220.0247569375,126.2598958125,216.1475369375,124.0342978125,209.2231559375C121.8086988125,202.2987689375,120.8407958125,187.9829239375,119.71815881250001,184.4630409375C119.0822718125,182.4653489375,118.1875288125,173.8865370375,114.51290081249999,173.7711727375C110.8382828125,173.6558184375,103.0163250125,183.5936259375,102.2397678125,186.0105489375C101.4632010125,188.4274729375,101.1311841125,188.4105869375,101.1311841125,188.4105869375Z" fill-rule="evenodd" fill="#AF1F24" fill-opacity="1" style="mix-blend-mode:passthrough"/><path d="M95.48306275,121.76351685624999C95.63402575,123.25785685625,95.59833574999999,125.09311625625,95.32399375,127.30952645625C93.84835774999999,139.23225215625,81.63608575,168.00257515625,42.54200455,170.63150815625C41.36319015,169.20545915625001,39.69711875,167.44019315625,37.41069725,165.50201015625Q32.94824765,161.71764715625,37.88901785,161.20275115625C38.51827075,161.22478915624998,39.39709945,161.41077015625,40.50750875,161.64575215625C46.343230750000004,162.88072615625,58.57510575,165.46925015624998,74.59026374999999,152.72804215625C95.64036974999999,135.97944115625,94.16273875,121.83102555625,93.85491975,118.88355362625C93.82948275,118.64024779625,93.81205374999999,118.47326646625,93.81592175,118.38744430625C93.84271275,117.79222461625,94.69032675,119.76887605625,95.48306275,121.76351685624999Z" fill-rule="evenodd" fill="#AE2427" fill-opacity="1" style="mix-blend-mode:passthrough"/><path d="M40.3475739375,176.923828125Q25.3574569375,179.041909725,13.1630859375,189.083732125C13.2775822375,189.174523125,13.3938033275,189.265046125,13.5117706675,189.355314125C12.4578745375,197.500067125,17.4390039375,202.946096125,23.721111937499998,204.52549712500002C25.4448639375,199.226196125,28.3488539375,194.184936125,32.143741937499996,191.504929125Q37.9653149375,187.405299125,44.9005409375,187.149119125C45.054303937499995,182.361110725,42.8773159375,177.768718775,40.0135399375,177.208776805C40.1288239375,177.110882315,40.2401199375,177.015962988,40.3475739375,176.923828125ZM45.7846409375,187.904727125C34.804618937499995,189.727389125,26.0013389375,201.381527125,23.7934439375,204.543491125C23.843809937499998,204.555897125,23.8942549375,204.568056125,23.9447859375,204.579967125C23.9194609375,207.832550125,30.3008179375,218.015137125,40.0219779375,210.809387125C49.3708189375,203.879606125,52.8099479375,193.241617125,45.7846409375,187.904727125Z" fill-rule="evenodd" fill="#D24138" fill-opacity="1" style="mix-blend-mode:passthrough"/><path d="M89.46871949999999,182.2003934375C89.46871949999999,182.2003934375,89.7050595,183.4243314375,90.56042049999999,183.8407494375C91.8068505,184.44287843749999,92.2486155,183.5593894375,92.89573250000001,182.7152864375C94.6402095,180.3855874375,95.39426449999999,175.0734144375,96.24679549999999,168.6470418375C97.0627475,162.5020307895,89.47153850000001,159.7840426375,74.9502865,166.5480599375C60.4290375,173.3120764375,48.7692785,176.9276234375,48.7692785,176.9276234375C48.7692785,176.9276234375,44.1942844,178.1515604375,40.1989002,177.8927014375C40.1989002,177.8927014375,38.8286542,177.7182544375,38.05490077,177.9996174375C37.63285592,178.1515604375,37.1404656,179.1082024375,37.306469496,179.3923774375C37.77635056,180.2055224375,43.8707161,181.4829174375,51.9824635,179.3923774375C60.0942175,177.3018374375,74.6379695,169.4348702375,78.7627835,168.3572483375C81.10091750000001,167.7494936375,90.0173645,163.3405133475,92.3667755,166.8575725375C94.7161715,170.3746318375,92.9942205,177.4143854375,91.1203385,179.6568624375C89.2464485,181.8993394375,89.46871949999999,182.2003934375,89.46871949999999,182.2003934375Z" fill-rule="evenodd" fill="#AF1F24" fill-opacity="1" style="mix-blend-mode:passthrough"/><path d="M53.5391049375,92.6227602625Q53.5098949375,91.1443087625,57.1975059375,89.5924379625C67.5320469375,86.0078472625,66.5782129375,91.5901276625,64.8084219375,92.7240295625C63.0386469375,93.8579287625,56.9442789375,96.0975932625,54.3697889375,93.9817294625Q53.5526809375,93.3101816625,53.5391049375,92.6227602625ZM31.1656539375,103.6606845625Q43.8608399375,93.9704747625,50.5179329375,95.2197360625C56.0896909375,96.6450719625,46.187551937500004,101.9731335625,37.405032937499996,106.69876256250001C35.5080089375,107.7194995625,33.6632179375,108.7121295625,32.0378879375,109.6312505625C27.2142189375,112.3437025625,23.2856054375,117.6614585625,20.4184904375,121.5423735625C18.0125541375,124.7990345625,16.3540930375,127.04392656249999,15.5414573875,125.8885195625C13.7604165375,123.35623956250001,18.4704675375,113.3508965625,31.1656539375,103.6606845625Z" fill-rule="evenodd" fill="#E57A72" fill-opacity="1" style="mix-blend-mode:passthrough"/></g></svg>