<svg viewBox="0 0 24 24" fill="currentColor" xmlns="http://www.w3.org/2000/svg">
  <path d="M19.365 9.863c.349 0 .63.285.63.631 0 .345-.281.63-.63.63H17.61v1.125h1.755c.349 0 .63.283.63.63 0 .344-.281.629-.63.629h-2.386a.63.63 0 0 1-.63-.629V8.108a.63.63 0 0 1 .63-.63h2.386c.349 0 .63.285.63.63 0 .349-.281.63-.63.63H17.61v1.125h1.755zm-3.855 3.016a.63.63 0 0 1-.63.629.626.626 0 0 1-.51-.262l-2.417-3.296v2.929a.63.63 0 0 1-1.26 0V8.108a.63.63 0 0 1 .63-.63c.2 0 .388.096.51.256l2.417 3.302V8.108a.63.63 0 0 1 1.26 0v4.771zm-5.741 0a.63.63 0 0 1-1.26 0V8.108a.63.63 0 0 1 1.26 0v4.771zm-2.451.629H4.932a.63.63 0 0 1-.63-.629V8.108a.63.63 0 0 1 1.261 0v4.141h1.754c.349 0 .63.283.63.63a.63.63 0 0 1-.63.629zM24 10.314C24 4.943 18.615.572 12 .572S0 4.943 0 10.314c0 4.811 4.27 8.842 10.035 9.608.391.082.923.258 1.058.59.122.301.079.766.039 1.068l-.171 1.027c-.053.303-.242 1.186 1.039.647 1.281-.54 6.911-4.069 9.428-6.967C23.309 14.09 24 12.323 24 10.314z"/>
</svg>