<svg xmlns="http://www.w3.org/2000/svg" xmlns:xlink="http://www.w3.org/1999/xlink" fill="none" version="1.1" width="223.41000366210938" height="300" viewBox="0 0 223.41000366210938 300"><defs><clipPath id="master_svg0_680_11246"><rect x="0" y="0" width="223.41000366210938" height="300" rx="0"/></clipPath></defs><g clip-path="url(#master_svg0_680_11246)"><path d="M118.5771484375,219.1640644C118.5771484375,219.1640644,123.7099056375,221.0925198,127.6841220375,215.5894728C131.1083904375,210.85266203,132.5822274375,211.325608763,132.5822274375,211.325608763C132.5822274375,211.325608763,133.9534044375,211.43193264,133.9423944375,213.5986931C133.9423944375,215.6994624,128.8903024375,224.557123,130.7894204375,226.720217C132.6885374375,228.883301,124.0618424375,223.948526,123.5119080375,223.574574C122.9619727375,223.20062000000001,118.5771484375,219.1640644,118.5771484375,219.1640644Z" fill-rule="evenodd" fill="#AE2427" fill-opacity="1" style="mix-blend-mode:passthrough"/><path d="M177.5435028125,283.323011125C177.5435028125,283.323011125,170.3649828125,294.783707125,158.4789848125,288.129465125C152.8109668125,291.491405125,147.2162598125,289.485977125,144.1182833125,285.310108125C141.7572131125,286.347669125,132.3386114125,284.895826125,134.5383610425,275.554222125C136.7381108125,266.212619825,143.8616361125,260.269616885,150.1345948125,264.628796125C153.5955448125,262.964318525,157.6907458125,263.092635125,159.0142598125,265.021089525C160.15079281250001,261.310837685,160.3304408125,261.615135025,162.3432118125,260.463937212C164.3559858125,259.312739325,177.5435028125,283.323011125,177.5435028125,283.323011125Z" fill-rule="evenodd" fill="#AE2427" fill-opacity="1" style="mix-blend-mode:passthrough"/><path d="M144.3212890625,285.568138125C147.4555258625,289.567303125,152.9352245625,291.421640125,158.4817080625,288.129639125C158.5870500625,288.188621125,158.6920340625,288.246162125,158.7966290625,288.302311125C160.0141670625,283.403639125,161.5706310625,274.114670125,159.1440800625,264.610519325C159.1030280625,264.741693825,159.0607190625,264.878509525,159.0169820625,265.021264325C157.7177480625,263.122929545,153.7291555625,262.968941985,150.3035817625,264.552318825C150.8146490625,265.982391625,152.1921124625,270.505349625,151.17496016249999,275.330766125C150.4156455625,278.938407125,147.6391477625,282.646238125,144.3212890625,285.568138125Z" fill-rule="evenodd" fill="#D24138" fill-opacity="1" style="mix-blend-mode:passthrough"/><path d="M9.5775866125,208.20166015625C9.5775866125,208.20166015625,-3.0526485875000002,226.48525415625,14.7103395125,240.07605715625C13.3244972125,250.81451415625,19.9787478125,257.95636415625,28.2974658125,259.93248015625C28.2681348125,264.17434315625,36.5795248125,277.44250515625,49.2464298125,268.04956815625C61.9133258125,258.65663915625,66.25418081250001,244.04661515625,55.6000478125,237.40703215625C55.8603438125,231.10106615625,53.0043338125,225.00408715625,49.2354278125,224.26717615625C54.0968708125,220.13897215625,53.5176128125,220.06566315625,53.9502218125,216.27841095625C54.3828468125,212.49117085625,9.5775866125,208.20166015625,9.5775866125,208.20166015625Z" fill-rule="evenodd" fill="#AE2427" fill-opacity="1" style="mix-blend-mode:passthrough"/><path d="M51.9667134375,215.4979434375C51.9667134375,215.4979434375,-7.1442670625,229.1363934375,0.49253678749999996,182.61532543750002C8.1293411375,136.0942494375,56.0509184375,84.6860694375,107.5984234375,110.1738524375C115.9501534375,114.35704443750001,120.7346334375,123.1413884375,106.7332034375,131.1228164375C92.7317884375,139.1042514375,80.7028194375,153.8829114375,76.2593074375,165.4829294375C93.0030824375,161.0430984375,91.4595874375,163.4994854375,110.7221034375,147.4229774375C116.2654834375,142.2902224375,123.4183234375,143.3900984375,121.4862234375,159.0010034375C119.5540834375,174.6119084375,103.4885534375,212.39261343750002,51.9667134375,215.4979434375Z" fill-rule="evenodd" fill="#D24039" fill-opacity="1" style="mix-blend-mode:passthrough"/><path d="M79.563080125,158.53126550000002C78.206615125,160.9004285,77.086202125,163.2232175,76.240538125,165.4308895C76.722954125,165.3029675,77.190191125,165.1807705,77.643181125,165.0636945C76.680197125,169.5518765,75.920145125,174.5562365,74.022405125,178.66604949999999C64.504810325,199.2630615,59.595703125,198.2328495,59.595703125,198.2328495C75.760204125,182.33597550000002,66.044636225,137.2960735,107.311954125,123.364316C111.45989212500001,122.0538623,113.99525112500001,120.6037971,115.544323125,119.3046875C115.963211125,122.9878986,113.632194125,127.1273384,106.714420125,131.0707755C99.927170125,134.9398095,93.603413125,140.4061085,88.382536125,146.3333125C87.213926125,147.5469775,85.251369125,150.0875815,83.841997125,152.1144755C82.620537125,153.8711355,82.039730125,154.8848415,79.701425125,158.22670349999999C79.654520125,158.3271365,79.608414125,158.42866850000001,79.563080125,158.53126550000002Z" fill-rule="evenodd" fill="#AE2427" fill-opacity="1" style="mix-blend-mode:passthrough" transform="matrix(1,0.00013570160081144422,-0.00013570160081144422,1,0.0161898370780591,-0.008087232315546089)"/><path d="M26.2080078125,300.69935575C26.2080078125,300.69935575,72.5346678125,207.99823575,119.3472368125,218.47840023C166.1598178125,228.95856475,132.1472778125,330.59515375,123.9215548125,346.54884375C115.6958388125,362.50250374999996,26.2080078125,300.69935575,26.2080078125,300.69935575Z" fill-rule="evenodd" fill="#D53F39" fill-opacity="1" style="mix-blend-mode:passthrough"/><path d="M163.4568440875,262.2227588125C163.4568440875,262.2227588125,170.04913518749999,298.6405108125,194.1915511875,283.1242828125C218.3339611875,267.6080248125,235.48857118749999,228.34880681250002,208.8703801875,205.6129935125C204.5268211875,201.9370353125,198.4692081875,201.3819569125,197.3815001875,211.1563353125C196.2937701875,220.9307118125,190.9320511875,231.2307588125,185.52636118750002,236.5204508125C183.9771881875,226.0660328125,182.9626981875,227.52537681249999,187.3245831875,212.8619776125C188.8517951875,208.5169887125,186.5188601875,204.7748650125,178.2711871875,209.6234550125C170.0235137875,214.4720448125,152.7883233875,232.5908638125,163.4568440875,262.2227588125Z" fill-rule="evenodd" fill="#D24039" fill-opacity="1" style="mix-blend-mode:passthrough"/><path d="M183.2270681875,207.2957570741C181.9015421875,207.5810310875,180.2653711875,208.2475278375,178.29042218749998,209.4042548875C170.0958661875,214.2038397875,153.0385341875,232.0411011875,163.2251722875,261.2026441875C164.6323704875,261.6161611875,166.4371299875,262.27682918749997,168.5602521875,263.3311651875Q172.7177931875,265.3952631875,171.5445891875,261.6373441875C171.3307121875,261.1855921875,170.9193561875,260.6036641875,170.3997661875,259.8686601875C167.6682724875,256.0046231875,161.9458566875,247.9095721875,166.2028493875,232.2523421875C172.2558411875,209.9652108875,184.3764671875,207.8681067275,185.1793801875,207.4758254875C185.5167391875,207.3125313225,184.5090411875,207.2793431635,183.2270681875,207.2957570741Z" fill-rule="evenodd" fill="#AE2427" fill-opacity="1" style="mix-blend-mode:passthrough"/><path d="M188.26745825,233.38370090625C188.49331425,233.16905390624999,188.70586225,232.95171890625,188.90281725,232.73085790625C191.28886025,230.04716690625,192.90791125,227.23970790625,193.82863025,223.87931490625C195.59694625,219.86346090625,196.89898825,215.48220090625,197.37707925,211.20190950625C197.93096725,206.24285840625,199.77093725,203.94689911625,202.01803825,203.36962890625C201.67674025,204.54882110625,201.48916625,206.30021400625,201.75191325,208.88973520625C202.46393625,215.90701190625,199.88381025,230.05900990625,185.04550925,240.08578490625Q170.20719844,250.11257190625,171.36329183,253.61754590625Q169.60528885,251.11817890625,178.83567235,240.83083390625C180.62171935,238.83975590625,183.13742025,237.24462090625,185.36722724999998,235.67239390625C185.40995725,235.94784890625,185.45321025,236.23210190625,185.49688725,236.52576490625C186.42891525,235.61709990625,187.35963425,234.56035590625,188.26745825,233.38370090625Z" fill-rule="evenodd" fill="#AE2427" fill-opacity="1" style="mix-blend-mode:passthrough"/><path d="M62.9436418125,246.2841796875Q41.7892218125,269.6926386875,26.2080078125,300.6997256875Q33.0078926125,305.5851286875,44.0210728125,310.5422366875C47.840675812499995,296.7943576875,54.943954812499996,279.4311946875,60.1888318125,268.3138976875C65.0329738125,258.0460196875,63.9967038125,250.1115781875,62.9436418125,246.2841796875Z" fill-rule="evenodd" fill="#AF2024" fill-opacity="1" style="mix-blend-mode:passthrough"/><path d="M100.7768556875,273.08124665C120.9565736875,282.60566375,125.9520796875,314.58649475,111.9288026875,344.51248175C97.9055476875,374.43843875,70.1776316875,390.96924875,50.0015696875,381.44485875C29.8255041875,371.92039875,24.8300037875,339.93588975,38.8496045875,310.00993775C52.869197687500005,280.08396145,80.5971026875,263.55682995,100.7768556875,273.08124665Z" fill-rule="evenodd" fill="#EA7F3D" fill-opacity="1" style="mix-blend-mode:passthrough"/><path d="M131.561190575,242.559491155C134.398859875,243.937998775,135.095461875,248.352160475,133.119343875,252.425370375C131.143226575,256.498578375,127.253341675,258.679987375,124.404664475,257.301482375C121.556000215,255.922963375,120.866740285,251.505133675,122.842845675,247.435590775C124.818938775,243.366058975,128.723511175,241.180983545,131.561190575,242.559491155Z" fill-rule="evenodd" fill="#4C1D17" fill-opacity="1" style="mix-blend-mode:passthrough"/><path d="M104.17498395,230.41642474875C107.01265325,231.79126666875,107.71290825,236.20909406875,105.73680325,240.27863796875C103.76069735,244.34818296875,99.87080095,246.53325796875,97.01845765,245.15473696875C94.16611531,243.77623096874999,93.48418629,239.36206726875,95.46030435,235.29252436875C97.43642215,231.22299256875,101.33730415,229.03791713875,104.17498395,230.41642474875Z" fill-rule="evenodd" fill="#4C1D17" fill-opacity="1" style="mix-blend-mode:passthrough"/><path d="M127.2570796375,245.96784579875C128.0489974375,246.41879957875,128.26163263749999,247.54067356875,127.7300388375,248.46822736875C127.1984317375,249.39579346875,126.1278871375,249.78074356875,125.3359686775,249.32980226875C124.5440627445,248.87886096875,124.3314274575,247.75332116875,124.8593687975,246.82575516875C125.3873102075,245.89818916875,126.4651733375,245.51322647875,127.2570796375,245.96784579875Z" fill-rule="evenodd" fill="#FFFFFF" fill-opacity="1" style="mix-blend-mode:passthrough"/><path d="M103.881655975,233.946387708C104.757892375,234.206699165,105.219830475,235.247907875,104.915533075,236.274466775C104.611236075,237.301025675,103.658011475,237.920604275,102.781774675,237.660305775C101.905537815,237.400006575,101.443599965,236.358798075,101.747884728,235.335904275C102.052181985,234.313023005,103.005406375,233.689766585,103.881655975,233.946387708Z" fill-rule="evenodd" fill="#FFFFFF" fill-opacity="1" style="mix-blend-mode:passthrough"/><path d="M109.5629335,265.48810359375C108.3180733,265.49414259375,107.0852156,265.24457959375,105.9406776,264.75485899375C102.9710145,263.47533129375,99.3964228,261.00062039375,99.16544763,256.46912589375C99.047394216,256.07421039375,99.149468608,255.64633041375,99.43309006,255.34725180375C99.75642294,255.00772865675,100.2504307,254.89250823075,100.6905992,255.05395103275C101.1937647,255.26369121375,101.5066602,255.77142906375,101.4678435,256.31515059375C101.588829,259.02083679375,103.3999634,261.14726449375,106.8535695,262.63576129375C110.6004885,264.24890899375,114.1860775,261.78885989375,114.20440550000001,261.76685569375C114.7227535,261.39733739375,115.4425165,261.51798769375,115.8120615,262.03633639375C116.1815915,262.55468509375,116.0609415,263.27446179375,115.5425815,263.64397999375C113.7667205,264.81784249375,111.6914855,265.45783559375,109.5629335,265.48810359375Z" fill="#4C1D17" fill-opacity="1" style="mix-blend-mode:passthrough"/><path d="M129.054528925,238.74572184375C129.054528925,238.74572184375,127.742024625,239.25898784375,126.829120825,238.69072384375C125.501930105,237.86581584375,125.446947875,237.22421884375,125.3149531959,236.06568884375C124.948330345,232.79538384375,136.808653625,221.76731064375,142.436349625,217.05250524375C147.818410625,212.56134364375,155.004262625,218.17804484375,157.306667625,236.14634284375C158.632041625,246.69033984375,160.598361625,257.14384884375,163.194663625,267.44879884375C163.194663625,267.44879884375,164.789501625,272.55955084375,167.451190625,276.22581084374997C167.451190625,276.22581084374997,168.444732625,277.43199184375,168.642715625,278.34123984375003C168.74904262500002,278.83618184375,168.133098625,279.88474284375,167.762813625,279.89939884375C166.69960062500002,279.93972784375,161.797828625,274.88761884375,158.897827625,265.86498684375C155.997817625,256.84234984375,154.736616625,238.18846484375,153.273794625,233.60197484374999C152.445217625,230.99893584375,151.279346625,219.82054184375,146.491220625,219.67021944375C141.703107625,219.51991034375,131.510911425,232.46910684375,130.499039625,235.61841384375C129.487154525,238.76772484375,129.054528925,238.74572184375,129.054528925,238.74572184375Z" fill-rule="evenodd" fill="#AF1F24" fill-opacity="1" style="mix-blend-mode:passthrough"/><path d="M121.694733,151.90315393125C121.891441,153.85031413125,121.84494,156.24170013125,121.487457,159.12973453125C119.564674,174.66532753125,103.651798,212.15373253125,52.7112894,215.57929253125002C51.1752667,213.72112253125,49.0043359,211.42093653125,46.025075,208.89543953125Q40.2103982,203.96432853125,46.648338100000004,203.29340353125C47.4682693,203.32211653125,48.6134043,203.56446053125,50.060293200000004,203.87064353125C57.664377,205.47984653125,73.602797,208.85274853125,94.470924,192.25065953125C121.899704,170.42683753125,119.974319,151.99111943125,119.573227,148.15049404125C119.540077,147.83346084125,119.517372,147.61588022125,119.522415,147.50405194125C119.55732,146.72846663125,120.661781,149.30409003125,121.694733,151.90315393125Z" fill-rule="evenodd" fill="#AE2427" fill-opacity="1" style="mix-blend-mode:passthrough"/><path d="M49.8526920625,223.77783203125Q30.320216062500002,226.53774213125,14.4306640625,239.62247403125C14.5798554425,239.74077603125,14.7312942425,239.85873003125,14.8850084525,239.97635103125C13.5117570125,250.58915503125002,20.0022859625,257.68545903125,28.1880210625,259.74345403125C30.4341110625,252.83834303125,34.2180770625,246.26946303125,39.1629050625,242.77734903125Q46.7485540625,237.43543503125,55.7853130625,237.10162703125C55.9856720625,230.86273913125,53.1490060625,224.87874453125,49.4174380625,224.14912686125C49.5676540625,224.02156803125,49.7126730625,223.89788592125,49.8526920625,223.77783203125ZM56.9373170625,238.08620203125C42.6300910625,240.46117403125,31.1592080625,255.64679003125,28.2822690625,259.76690303125C28.3478980625,259.78306603125,28.4136290625,259.79890803125,28.4794730625,259.81443403125C28.446474062500002,264.05262403125,36.761532062499995,277.32077003125,49.4284320625,267.93151503125C61.6101910625,258.90184803125,66.0914610625,245.04029503125,56.9373170625,238.08620203125Z" fill-rule="evenodd" fill="#D24138" fill-opacity="1" style="mix-blend-mode:passthrough"/><path d="M113.8583606875,230.6536831875C113.8583606875,230.6536831875,114.1663206875,232.2485011875,115.2808686875,232.7911051875C116.9049986875,233.5756931875,117.4806286875,232.4244861875,118.3238376875,231.3246001875C120.5969386875,228.2889461875,121.5794826875,221.36706118749998,122.6903536875,212.9933461875C123.7535556875,204.9862523775,113.8620296875,201.4446496875,94.9405016875,210.2583236875C76.0189706875,219.0719961875,60.8260306875,223.78313818750001,60.8260306875,223.78313818750001C60.8260306875,223.78313818750001,54.8647060875,225.37795818749998,49.6586262875,225.0406591875C49.6586262875,225.0406591875,47.873163687499996,224.8133491875,46.8649447875,225.1799731875C46.3150103675,225.37795818749998,45.6734141675,226.6244851875,45.8897211585,226.9947721875C46.5019872175,228.0543191875,54.4430894875,229.7187961875,65.0128876875,226.9947721875C75.5826926875,224.2707481875,94.5335466875,214.0199050875,99.90827168749999,212.6157383875C102.9549176875,211.8238200875,114.5732576875,206.0788149275,117.6345976875,210.6616258875C120.6959156875,215.2444371875,118.4521716875,224.4174001875,116.0104526875,227.3394011875C113.5687336875,230.2614021875,113.8583606875,230.6536831875,113.8583606875,230.6536831875Z" fill-rule="evenodd" fill="#AF1F24" fill-opacity="1" style="mix-blend-mode:passthrough"/><path d="M67.041133625,113.93190434375Q67.00307462500001,112.00544734375,71.808112625,109.98332324375C85.274261625,105.31251714375,84.031394625,112.58635994375,81.725318625,114.06386084375C79.41925462500001,115.54135804375,71.478153625,118.45969384375,68.123531625,115.70267294375Q67.058822625,114.82763054375,67.041133625,113.93190434375ZM37.888002625,128.31458084375Q54.430122625,115.68800834375,63.104476625,117.31582454375C70.364604625,119.17307184375,57.461887625,126.11566184375,46.018058624999995,132.27326784375C43.546192625,133.60331184375,41.142385625,134.89673084375,39.024543625,136.09436584375C32.739189625,139.62875584375,27.620113625000002,146.55791884375,23.884195825,151.61484184375C20.749204625,155.85834484375,18.588191025,158.78349284375,17.529307755,157.27796984375C15.208569725,153.97835184375,21.345876725,140.94115484374998,37.888002625,128.31458084375Z" fill-rule="evenodd" fill="#E57A72" fill-opacity="1" style="mix-blend-mode:passthrough"/></g></svg>