<svg xmlns="http://www.w3.org/2000/svg" xmlns:xlink="http://www.w3.org/1999/xlink" fill="none" version="1.1" width="256" height="256" viewBox="0 0 256 256"><defs><clipPath id="master_svg0_141_38215"><rect x="0" y="0" width="256" height="256" rx="45.0704231262207"/></clipPath></defs><g clip-path="url(#master_svg0_141_38215)"><rect x="0" y="0" width="256" height="256" rx="45.0704231262207" fill="#F3F8FD" fill-opacity="1"/><path d="M158.65625,159.56110761796876C158.65625,159.56110761796876,164.9594512,161.92931441796875,169.839928,155.17137911796874C174.045061,149.35441904796875,175.854977,149.93521782596875,175.854977,149.93521782596875C175.854977,149.93521782596875,177.538826,150.06578796796876,177.52532,152.72664071796876C177.52532,155.30645561796874,171.32117,166.18398141796874,173.653351,168.84032641796875C175.985531,171.49667141796874,165.3916531,165.43659841796875,164.7163095,164.97737241796875C164.040967,164.51814341796876,158.65625,159.56110761796876,158.65625,159.56110761796876Z" fill-rule="evenodd" fill="#AE2427" fill-opacity="1" style="mix-blend-mode:passthrough"/><path d="M231.0661428125,238.35104350390625C231.0661428125,238.35104350390625,222.2506718125,252.42519350390626,207.6542548125,244.25353250390626C200.6937258125,248.38212250390626,193.8232318125,245.91938750390625,190.0187928125,240.79127550390626C187.1193199125,242.06543150390624,175.5529449125,240.28251450390624,178.2543167125,228.81069950390625C180.9556887125,217.33888100390624,189.7036278125,210.04066464390624,197.4070468125,215.39388990390626C201.6572078125,213.34984780390624,206.6862658125,213.50743080390626,208.3115848125,215.87563750390626C209.7072968125,211.31932600390624,209.9279058125,211.69300970390626,212.3996548125,210.27929900190625C214.8714068125,208.86558830390624,231.0661428125,238.35104350390625,231.0661428125,238.35104350390625Z" fill-rule="evenodd" fill="#AE2427" fill-opacity="1" style="mix-blend-mode:passthrough"/><path d="M190.26953205690728,241.10792158203125C194.11848685,246.01903958203124,200.84774125,248.29622658203124,207.65903125,244.25354558203125C207.78839525,244.32596958203123,207.91730525,244.39664258203126,208.04575925,244.46559758203125C209.54094325,238.44984058203124,211.45232625,227.04265658203124,208.47244425,215.37122908203125C208.42202525,215.53232558203126,208.37006424999998,215.70033768203126,208.31636025,215.87564828203125C206.72084825,213.54442245203126,201.82272525,213.35531884203124,197.61599395,215.29975318203125C198.24360995,217.05594088203125,199.93517785,222.61029528203125,198.68608575,228.53607558203126C197.75361065,232.96638458203125,194.34398125,237.51972358203125,190.26953205690728,241.10792158203125Z" fill-rule="evenodd" fill="#D24138" fill-opacity="1" style="mix-blend-mode:passthrough"/><path d="M24.79846665625,146.0992431640625C24.79846665625,146.0992431640625,9.28809115625,168.5521431640625,31.101667156250002,185.2421221640625C29.39980315625,198.4293251640625,37.571455156249996,207.19976416406251,47.787138156249995,209.6265101640625C47.75111915625,214.8356631640625,57.95780215625,231.1294331640625,73.51320315625,219.5945811640625C89.06860315625,208.0597191640625,94.39931515625,190.1181071640625,81.31566615625,181.9644581640625C81.63533015625,174.2205201640625,78.12804815625,166.7332151640625,73.49969515625,165.8282661640625C79.46972615625,160.7586871640625,78.75837315625,160.6686501640625,79.28963515625,156.0177802640625C79.82090715625,151.3669099640625,24.79846665625,146.0992431640625,24.79846665625,146.0992431640625Z" fill-rule="evenodd" fill="#AE2427" fill-opacity="1" style="mix-blend-mode:passthrough"/><path d="M76.8540500625,155.058759296875C76.8540500625,155.058759296875,4.263686162500001,171.807269296875,13.6419492925,114.677765296875C23.0202140625,57.548237296875,81.8695980625,-5.582814703124999,145.1717640625,25.717083896875C155.4279640625,30.854191296875,161.3034640625,41.641672296875,144.1092340625,51.443149296875C126.9149940625,61.244632296875,112.1429900625,79.39334829687499,106.6862180625,93.638580296875C127.2481540625,88.186310296875,125.3526940625,91.202842296875,149.0077240625,71.460319296875C155.8151840625,65.15711929687501,164.5991340625,66.507805296875,162.2264440625,85.678543296875C159.8537140625,104.849281296875,140.1246940625,151.245329296875,76.8540500625,155.058759296875Z" fill-rule="evenodd" fill="#D24039" fill-opacity="1" style="mix-blend-mode:passthrough"/><path d="M110.7423266875,85.10197488671875C109.0765356875,88.01138688671875,107.7006306875,90.86386488671874,106.6621226875,93.57495888671875C107.2545486875,93.41786988671875,107.8283306875,93.26780688671874,108.3846206875,93.12403488671876C107.2020416875,98.63567688671876,106.2686686875,104.78121188671875,103.9381766875,109.82820888671876C92.2502402875,135.12205488671873,86.2216796875,133.85691088671877,86.2216796875,133.85691088671877C106.0722556875,114.33500688671874,94.1411990875,59.02441588671875,144.8189276875,41.91572478671875C149.9127346875,40.30644278671875,153.0262526875,38.52571068671875,154.9285656875,36.93036006465835C155.4429626875,41.45347358671875,152.5803986875,46.53684898671875,144.0851246875,51.37952888671875C135.7501336875,56.130839886718746,127.98434068750001,62.84364888671875,121.5729296875,70.12245988671876C120.13783268750001,71.61288788671875,117.7277446875,74.73284188671875,115.9969866875,77.22194288671875C114.4969866875,79.37917288671875,113.7837386875,80.62404988671875,110.9122196875,84.72796988671875C110.85461268750001,84.85129888671875,110.7979946875,84.97598288671875,110.7423266875,85.10197488671875Z" fill-rule="evenodd" fill="#AE2427" fill-opacity="1" style="mix-blend-mode:passthrough" transform="matrix(1,0.00013570160081144422,-0.00013570160081144422,1,0.005011508819464439,-0.011700419958245334)"/><path d="M46.46044921875,257.5212781914063C46.46044921875,257.5212781914063,102.11295321875,145.84881119140624,159.60044921875,158.71882019140625C217.08794921875,171.58883019140626,175.31933921875,296.40214619140625,165.21785921875,315.99381619140627C155.11638921875,335.58547619140626,46.46044921875,257.5212781914063,46.46044921875,257.5212781914063Z" fill-rule="evenodd" fill="#D53F39" fill-opacity="1" style="mix-blend-mode:passthrough"/><path d="M213.76896573125,212.4378430546875C213.76896573125,212.4378430546875,221.86452953125,257.16012105468747,251.51227553125,238.10562905468748C281.16001853125,219.0511400546875,302.22647853125,170.8394280546875,269.53840253125,142.9190497546875C264.20433453124997,138.4048422546875,256.76538853125,137.7231922546875,255.42963453125,149.7264690546875C254.09387953125,161.7297460546875,247.50948353125,174.3785630546875,240.87111653125,180.8745040546875C238.96866953125,168.0360950546875,237.72284353125,169.8282320546875,243.07939153125,151.8210540546875C244.95486053125,146.4852571546875,242.08993153125,141.8897970546875,231.96150053125,147.8440380546875C221.83307053125,153.7982790546875,200.66764353125,176.0488240546875,213.76896573125,212.4378430546875Z" fill-rule="evenodd" fill="#D24039" fill-opacity="1" style="mix-blend-mode:passthrough"/><path d="M238.04748553125,144.98673613931874C236.41968753125,145.33707043921876,234.41041753125,146.15554249921874,231.98510153125,147.57605669921875C221.92190053125,153.47010229921875,200.97490403125,175.37489469921874,213.48445483125,211.18629469921876C215.21253633125,211.69410669921876,217.42885253125,212.50543169921875,220.03611553125,213.80019369921877Q225.14171953125,216.33498369921875,223.70098253125,211.72013069921877C223.43834553125,211.16535969921875,222.93317653125,210.45072969921875,222.29510453125,209.54810369921876C218.94073103125,204.80294069921877,211.91340873125,194.86194569921875,217.14114763125,175.63430969921876C224.57442653125,148.26491949921876,239.45898453125,145.68961107921876,240.44498453125,145.20786307921875C240.85928553125,145.00733463321876,239.62180153125001,144.96658060921874,238.04748553125,144.98673613931874Z" fill-rule="evenodd" fill="#AE2427" fill-opacity="1" style="mix-blend-mode:passthrough"/><path d="M244.23468209375,177.02391837890625C244.51204109374999,176.76032637890626,244.77306009375,176.49343537890624,245.01492109375,176.22221037890625C247.94507009375,172.92655137890625,249.93331909375001,169.47888537890626,251.06399509375,165.35219737890625C253.23554609375,160.42059737890625,254.83449909375,155.04025237890625,255.42160809375,149.78390027890626C256.10181809375,143.69401837890626,258.36135509375,140.87449973890625,261.12088409375,140.16558837890625C260.70175209375,141.61368257890626,260.47141609375,143.76444387890626,260.79407909375,146.94446897890626C261.66844509375,155.56193137890625,258.49998109375,172.94108537890625,240.27801509375,185.25432537890626Q222.05604729375,197.56756937890626,223.47576281375,201.87179137890627Q221.31688569375,198.80249737890625,232.65210819375,186.16925837890625C234.84543709375,183.72415537890623,237.93480909375,181.76527437890624,240.67309909375,179.83451437890625C240.72556309375,180.17278637890627,240.77867909375,180.52185837890624,240.83231709375,180.88249237890625C241.97687909375,179.76662437890624,243.11983909375,178.46890637890624,244.23468209375,177.02391837890625Z" fill-rule="evenodd" fill="#AE2427" fill-opacity="1" style="mix-blend-mode:passthrough"/><path d="M90.33483121875,192.86468070558436Q64.35646421875,221.61110305859376,46.46044921875,257.52129405859375Q54.810947418750004,263.52073705859374,67.09725521875,271.77584105859376C71.78786121875,254.89295605859374,80.51094021875,233.57039305859377,86.95183921875,219.91795505859375C92.90061521875,207.30863905859374,91.62802521875,197.56487035859374,90.33483121875,192.86468070558436Z" fill-rule="evenodd" fill="#AF2024" fill-opacity="1" style="mix-blend-mode:passthrough"/><path d="M136.79325909375,225.7728576875C161.57467109375,237.4691701875,167.70932109375002,276.7427751875,150.48825109375,313.4929271875C133.26720409375,350.24307718750003,99.21635009375001,370.5434871875,74.43943009375,358.8471571875C49.66250919375,347.1508271875,43.52786059375,307.8727261875,60.74442199375,271.12258118750003C77.96097909375,234.3724311875,112.01182909375001,214.0765447875,136.79325909375,225.7728576875Z" fill-rule="evenodd" fill="#EA7F3D" fill-opacity="1" style="mix-blend-mode:passthrough"/><path d="M174.599037625,188.29056662046875C178.083803625,189.98343043046876,178.939248625,195.40417243046875,176.512509625,200.40621823046874C174.085770625,205.40826423046875,169.308851725,208.08711623046875,165.810580925,206.39425323046873C162.312309725,204.70138923046875,161.465877725,199.27614123046874,163.892602725,194.27860073046875C166.319327625,189.28106113046874,171.114273025,186.59771653046874,174.599037625,188.29056662046875Z" fill-rule="evenodd" fill="#4C1D17" fill-opacity="1" style="mix-blend-mode:passthrough"/><path d="M140.96688153125,173.379006621875C144.45164753125,175.067363971875,145.31158453125,180.492612871875,142.88486053125,185.490152171875C140.45813553125,190.487694171875,135.68120243125,193.171051171875,132.17842393125,191.478187171875C128.67564574125,189.785324171875,127.83821333125,184.36458217187499,130.26495233125,179.367041071875C132.69169113125,174.369501271875,137.48211673125,171.686156371875,140.96688153125,173.379006621875Z" fill-rule="evenodd" fill="#4C1D17" fill-opacity="1" style="mix-blend-mode:passthrough"/><path d="M169.3133457125,192.4777039325C170.2858410125,193.0314900925,170.5469675125,194.4091884625,169.8941445125,195.5482661625C169.2413211125,196.6873440625,167.9266477125,197.1600789625,166.9541522825,196.6063065625C165.9816569105,196.0525338625,165.7205303925,194.6703286625,166.3688606325,193.5312509625C167.0171909125,192.3921731425,168.3408501125,191.9194248325,169.3133457125,192.4777039325Z" fill-rule="evenodd" fill="#FFFFFF" fill-opacity="1" style="mix-blend-mode:passthrough"/><path d="M140.60684993125,177.714682907125C141.68290303125,178.034341368125,142.25018163125,179.312989028125,141.87649773125,180.573637228125C141.50281453125,181.834285728125,140.33221723125,182.595159528125,139.25616423125,182.275500728125C138.18011120125,181.955842528125,137.61283249125,180.677194828125,137.98651618125,179.421053328125C138.36019987125,178.164911508125,139.53079703125,177.399531108125,140.60684993125,177.714682907125Z" fill-rule="evenodd" fill="#FFFFFF" fill-opacity="1" style="mix-blend-mode:passthrough"/><path d="M147.5855625,216.44790647265626C146.0568215,216.45532647265625,144.5428238,216.14884347265624,143.1373014,215.54744947265624C139.4904475,213.97615547265625,135.10071883,210.93711277265626,134.81707263,205.37227907265626C134.672103092,204.88731607265626,134.79745207,204.36186146265624,135.14574444,203.99458053265624C135.54281342,203.57762991265625,136.1494706,203.43613655265625,136.6900253,203.63440313165626C137.3079214,203.89197108265626,137.6921713,204.51548719265625,137.6445076,205.18319067265625C137.793077,208.50588037265624,140.0172071,211.11720087265624,144.2583666,212.94512847265625C148.8597035,214.92613147265624,153.2629375,211.90510077265625,153.2854445,211.87808797265626C153.9219985,211.42430117265624,154.8059005,211.57245827265626,155.2597005,212.20901397265624C155.7135025,212.84556867265624,155.5653325,213.72946947265626,154.9287755,214.18325747265624C152.7479535,215.62480447265625,150.1994925,216.41073947265625,147.5855625,216.44790647265626Z" fill="#4C1D17" fill-opacity="1" style="mix-blend-mode:passthrough"/><path d="M171.5195383875,183.608243828125C171.5195383875,183.608243828125,169.9077262875,184.238559828125,168.7866474875,183.540710828125C167.1568219375,182.527696828125,167.0892903775,181.739797828125,166.9272009245,180.317073828125C166.4769722775,176.301028828125,181.0418721875,162.758157728125,187.9528841875,156.968211128125C194.5622371875,151.452910928125,203.3867221875,158.350416228125,206.2141571875,180.416124828125C207.8417701875,193.364524828125,210.2564621875,206.201797828125,213.4448281875,218.856639828125C213.4448281875,218.856639828125,215.4033281875,225.13282782812502,218.6719781875,229.635116828125C218.6719781875,229.635116828125,219.8920931875,231.116355828125,220.1352191875,232.23294782812502C220.2657891875,232.840736828125,219.5093921875,234.128410828125,219.0546721875,234.146415828125C217.7490121875,234.195930828125,211.7294581875,227.991782828125,208.1681481875,216.911662828125C204.6068381875,205.831546828125,203.0580481875,182.923913828125,201.2616421875,177.291549828125C200.2441181875,174.094922828125,198.8123971875,160.367458828125,192.9324111875,160.182863228125C187.0524251875,159.998268128125,174.5360622875,175.90034482812501,173.2934403875,179.767808828125C172.0508188875,183.635268828125,171.5195383875,183.608243828125,171.5195383875,183.608243828125Z" fill-rule="evenodd" fill="#AF1F24" fill-opacity="1" style="mix-blend-mode:passthrough"/><path d="M162.48117846875,76.96288779921875C162.72275546875,79.35407019921875,162.66564946875002,82.29077869921875,162.22666146875,85.83738569921874C159.86541746875,104.91564169921875,140.32382246875,150.95272869921877,77.76708946875,155.15943169921874C75.88079736875,152.87753269921876,73.21482276875,150.05281869921873,69.55617976875,146.95143869921876Q62.41555496875,140.89584369921874,70.32157086875,140.07192269921876C71.32847546875,140.10719269921876,72.73473926875,140.40479269921875,74.51157376875,140.78081469921875C83.84965746875,142.75695069921875,103.42259646875,146.89900169921873,129.04939646875,126.51104769921875C162.73291046875,99.71062469921876,160.36846946875,77.07091519921875,159.87590046875,72.35448956921876C159.83521246875,71.96516435921875,159.80731946875,71.69796451921874,159.81350746875,71.56064056921875C159.85636946875002,70.60818957921875,161.21269246875,73.77114489921875,162.48117846875,76.96288779921875Z" fill-rule="evenodd" fill="#AE2427" fill-opacity="1" style="mix-blend-mode:passthrough"/><path d="M74.255317375,165.22821657733675Q50.268749375,168.61747744921874,30.755818030491,184.68598944921874C30.939029425,184.83126244921874,31.125001605,184.97612344921876,31.313768805,185.12055444921876C29.627367575,198.15345044921875,37.597965275,206.86795844921875,47.650337375,209.39525644921875C50.408615375,200.91553544921874,55.055458375,192.84872444921876,61.127880375000004,188.56029344921876Q70.443332375,182.00023244921874,81.54078637500001,181.59030344921877C81.786838375,173.92873004921876,78.303310375,166.58016254921876,73.720810375,165.68417745921874C73.905281375,165.52753009921875,74.083370375,165.37563710921876,74.255317375,165.22821657733675ZM82.955490375,182.79939044921875C65.38570737500001,185.71594844921876,51.299060374999996,204.36441444921874,47.766079375000004,209.42405744921876C47.846672375,209.44390844921875,47.927396375,209.46336344921875,48.008249375,209.48241844921876C47.967729375000005,214.68706544921875,58.178913375,230.98083544921874,73.734314375,219.45048944921876C88.693950375,208.36174344921875,94.197097375,191.33925644921874,82.955490375,182.79939044921875Z" fill-rule="evenodd" fill="#D24138" fill-opacity="1" style="mix-blend-mode:passthrough"/><path d="M152.8576510625,173.67163468359377C152.8576510625,173.67163468359377,153.2358470625,175.63013068359373,154.6045460625,176.29646268359375C156.5990520625,177.25995968359376,157.3059160625,175.84623368359377,158.3414380625,174.49554868359377C161.13285806250002,170.76765468359375,162.3394700625,162.26733368359376,163.70365906249998,151.98411468359376C165.00931506249998,142.15112255359375,152.86216006249998,137.80191228359374,129.6258510625,148.62541248359375C106.38954906250001,159.44891368359376,87.7320800625,165.23435368359375,87.7320800625,165.23435368359375C87.7320800625,165.23435368359375,80.4113650625,167.19284968359375,74.0181140625,166.77863468359374C74.0181140625,166.77863468359374,71.8255030625,166.49949468359375,70.5873743625,166.94972468359376C69.9120314125,167.19284968359375,69.1241313025,168.72362668359375,69.3897645365,169.17835968359375C70.1416454925,170.47952868359374,79.8935990625,172.52355768359376,92.8736910625,169.17835968359375C105.8537830625,165.83316568359376,129.1260910625,153.24476268359376,135.7264480625,151.52039338359376C139.46785006250002,150.54789828359375,153.7355880625,143.49282248359376,157.49500306250002,149.12068028359374C161.2544100625,154.74853768359375,158.4990160625,166.01325368359375,155.50049606250002,169.60157568359375C152.5019760625,173.18990168359375,152.8576510625,173.67163468359377,152.8576510625,173.67163468359377Z" fill-rule="evenodd" fill="#AF1F24" fill-opacity="1" style="mix-blend-mode:passthrough"/><path d="M95.3661234375,30.33195018125Q95.3193894375,27.96619228125,101.2201534375,25.48295138125C117.7570574375,19.74703768125,116.2307814375,28.67957398125,113.3988344375,30.49399518125C110.5669024375,32.30841538125,100.8149494375,35.89223578125,96.6953544375,32.50651738125Q95.38785143749999,31.43193288125,95.3661234375,30.33195018125ZM59.565048437499996,47.994382781249996Q79.8793644375,32.48850728125,90.5317764375,34.48752378125C99.4474794375,36.76828778125,83.6024814375,45.294034781250005,69.5490494375,52.85578878125C66.5135044375,54.489131781249995,63.561544437500004,56.07749578125,60.9607604375,57.54823678125C53.242126437500005,61.88858778125,46.9557204375,70.39783878125,42.3678798375,76.60792178125C38.5179991375,81.81909978125,35.8641966375,85.41127778124999,34.5638503475,83.56244278125C31.7139020375,79.51039078125001,39.2507324375,63.50025978125,59.565048437499996,47.994382781249996Z" fill-rule="evenodd" fill="#E57A72" fill-opacity="1" style="mix-blend-mode:passthrough"/></g></svg>